# xmcd
#
# Track frame offsets:
#	150
#	11294
#	27361
#	37937
#	51812
#	63994
#	77011
#	86525
#	96674
#	107479
#
# Disc length: 1580 seconds
#
# Revision: 1
# Processed by: cddbd v1.5.2PL0 Copyright (c) Steve Scherf et al.
# Submitted via: audiograbber 1.83.01
#
DISCID=6f062a0a
DTITLE=Porter Wagoner - Experience
DYEAR=1972
DGENRE=Country
TTITLE0=Katy Did
TTITLE1=Like You Were Years Ago
TTITLE2=Barlow Chapin
TTITLE3=Where Does Love Go
TTITLE4=With You
TTITLE5=A World Without Music
TTITLE6=I've Got Work To Do
TTITLE7=Darling Debra Jean
TTITLE8=I'd Leave It All To Be With You
TTITLE9=He's Alone Again Tonight
EXTD=
EXTT0=
EXTT1=
EXTT2=
EXTT3=
EXTT4=
EXTT5=
EXTT6=
EXTT7=
EXTT8=
EXTT9=
PLAYORDER=
